<?xml version="1.0" encoding="UTF-8"?>
<!DOCTYPE svg PUBLIC "-//W3C//DTD SVG 1.0//EN" "http://www.w3.org/TR/2001/REC-SVG-20010904/DTD/svg10.dtd">
<!-- Creator: CorelDRAW X8 -->
<svg xmlns="http://www.w3.org/2000/svg" xml:space="preserve" width="10mm" height="10.0002mm" version="1.0" style="shape-rendering:geometricPrecision; text-rendering:geometricPrecision; image-rendering:optimizeQuality; fill-rule:evenodd; clip-rule:evenodd"
viewBox="0 0 5 5"
 xmlns:xlink="http://www.w3.org/1999/xlink">
  <g id="Слой_x0020_1">
  <metadata id="CorelCorpID_0Corel-Layer"/>
  <path class="fil0" d="M4 4l0 -1 -1 0 0 1 0 0 0 -1 -1 0 0 0c0,0 0,0 0,0l0 2c0,0 0,0 0,0l2 0 0 0c0,0 1,0 1,-1l0 -1c0,0 0,0 -1,0l0 1 0 0zm1 -2l0 2c0,1 -1,1 -1,1l0 0 -2 0c0,0 0,0 0,0l0 0 0 -2c0,0 0,0 0,0l0 0 2 0c1,0 1,0 1,-1 0,0 -1,0 -1,0l-3 0c0,0 -1,-1 -1,-1l0 2c0,0 0,0 1,0 0,1 0,1 0,1l0 0c0,0 0,0 -1,0 0,-1 0,-1 0,-1l0 -2 0 0c0,-1 1,-1 1,-1l0 0 1 0c2,0 1,1 1,1l0 0c0,0 0,-1 -1,-1l-1 0 0 0c0,0 -1,0 -1,1l0 0 0 0c0,0 1,1 1,1l3 0 0 0c0,0 1,0 1,0zm-3 -1c0,0 0,0 0,0 0,0 -1,0 -1,0 0,0 1,0 1,0 0,0 0,0 0,0z"/>
 </g>
</svg>
