<?xml version="1.0" encoding="UTF-8"?>
<!DOCTYPE svg PUBLIC "-//W3C//DTD SVG 1.0//EN" "http://www.w3.org/TR/2001/REC-SVG-20010904/DTD/svg10.dtd">
<!-- Creator: CorelDRAW X8 -->
<svg xmlns="http://www.w3.org/2000/svg" xml:space="preserve" width="296.334mm" height="248.388mm" version="1.0" style="shape-rendering:geometricPrecision; text-rendering:geometricPrecision; image-rendering:optimizeQuality; fill-rule:evenodd; clip-rule:evenodd"
viewBox="0 0 3837 3216"
 xmlns:xlink="http://www.w3.org/1999/xlink">
 <defs>
  <style type="text/css">
   <![CDATA[
    .str0 {stroke:black;stroke-width:129.322}
    .fil0 {fill:none}
   ]]>
  </style>
 </defs>
 <g id="Слой_x0020_1">
  <metadata id="CorelCorpID_0Corel-Layer"/>
  <path class="fil0 str0" d="M1254 1979c-51,-121 -155,-345 -293,-466 -207,-172 -362,-414 -431,-655 0,-86 52,-173 173,-207 0,0 34,172 120,172 87,0 138,-34 242,-155 103,-121 120,-138 120,-138 0,0 87,-138 0,-207 -86,-69 -310,-224 -310,-224 0,0 -103,-34 -155,-34 -52,0 -155,0 -242,86 -103,69 -310,276 -310,276 0,0 -103,138 -103,327 0,207 69,828 69,828 0,0 86,431 189,707 104,276 328,569 535,741 69,69 155,121 190,121 103,0 241,-103 362,-103 120,0 362,103 586,103 224,0 914,-155 1172,-1000 0,0 604,-138 604,-776 0,-638 -535,-793 -759,-793 -224,0 -776,155 -776,724l0 104c0,0 -120,-87 -310,-87 -190,0 -586,121 -621,638l-52 18z"/>
 </g>
</svg>
