<?xml version="1.0" encoding="UTF-8"?>
<!DOCTYPE svg PUBLIC "-//W3C//DTD SVG 1.1//EN" "http://www.w3.org/Graphics/SVG/1.1/DTD/svg11.dtd">
<!-- Creator: CorelDRAW X8 -->
<svg xmlns="http://www.w3.org/2000/svg" xml:space="preserve" width="297mm" height="289.579mm" version="1.1" style="shape-rendering:geometricPrecision; text-rendering:geometricPrecision; image-rendering:optimizeQuality; fill-rule:evenodd; clip-rule:evenodd"
viewBox="0 0 29617 28877"
 xmlns:xlink="http://www.w3.org/1999/xlink">
 <defs>
  <style type="text/css">
   <![CDATA[
    .fil0 {fill:brown}
   ]]>
  </style>
 </defs>
 <g id="Слой_x0020_1">
  <metadata id="CorelCorpID_0Corel-Layer"/>
  <path class="fil0" d="M9906 23251c0,120 -137,215 -310,215 -197,18 -335,-77 -335,-215 0,-119 138,-215 311,-215 179,-17 334,78 334,215zm-1857 -268c-42,119 78,257 257,292 155,60 334,0 370,-119 36,-120 -78,-257 -257,-311 -155,-41 -328,18 -370,138zm2639 -102c-173,42 -292,155 -274,293 18,119 173,197 352,155 173,-42 292,-155 275,-275 -18,-113 -180,-191 -353,-173l0 0zm3929 -22881c-8282,0 -14617,6288 -14617,14569 0,6622 4168,12289 10121,14283 764,138 1033,-334 1033,-722 0,-370 -18,-2412 -18,-3666 0,0 -4180,895 -5057,-1780 0,0 -681,-1737 -1660,-2185 0,0 -1368,-938 95,-920 0,0 1487,120 2305,1541 1308,2305 3499,1642 4353,1248 137,-956 525,-1618 955,-2013 -3338,-370 -6705,-853 -6705,-6598 0,-1642 454,-2466 1409,-3517 -155,-388 -663,-1988 155,-4054 1248,-388 4120,1612 4120,1612 1194,-334 2478,-507 3750,-507 1272,0 2556,173 3750,507 0,0 2872,-2006 4120,-1612 818,2072 310,3666 155,4054 956,1057 1541,1881 1541,3517 0,5763 -3517,6222 -6855,6598 549,472 1015,1368 1015,2771 0,2012 -18,4502 -18,4992 0,388 275,860 1033,722 5971,-1982 10020,-7649 10020,-14271 0,-8281 -6718,-14569 -15000,-14569zm-8813 20594c-78,60 -60,197 42,311 95,95 233,137 310,60 78,-60 60,-198 -42,-311 -95,-96 -232,-137 -310,-60zm-645 -483c-42,77 18,173 137,233 96,59 215,41 257,-42 42,-78 -18,-173 -137,-233 -120,-36 -215,-18 -257,42zm1935 2125c-96,78 -60,257 77,371 138,137 311,155 388,59 78,-77 42,-256 -77,-370 -132,-137 -311,-155 -388,-60zm-681 -877c-96,59 -96,215 0,352 95,137 257,197 334,137 96,-77 96,-233 0,-370 -83,-137 -239,-197 -334,-119z"/>
 </g>
</svg>
